<svg viewBox="0 0 400 400" xmlns="http://www.w3.org/2000/svg">
  <!-- Background Circle -->
  <circle cx="200" cy="200" r="190" fill="#f0f9ff" stroke="#2563eb" stroke-width="4"/>
  
  <!-- Person 1 (Left) -->
  <g id="person1">
    <!-- Head -->
    <circle cx="80" cy="100" r="25" fill="#2563eb"/>
    <!-- Body -->
    <rect x="70" y="130" width="20" height="60" rx="10" fill="#2563eb"/>
    <!-- Left Arm -->
    <rect x="45" y="140" width="25" height="15" rx="7" fill="#2563eb"/>
    <!-- Right Arm (extended) -->
    <line x1="90" y1="140" x2="150" y2="140" stroke="#2563eb" stroke-width="12" stroke-linecap="round"/>
    <!-- Legs -->
    <rect x="65" y="195" width="10" height="50" rx="5" fill="#2563eb"/>
    <rect x="80" y="195" width="10" height="50" rx="5" fill="#2563eb"/>
  </g>
  
  <!-- Person 2 (Center-Left) -->
  <g id="person2">
    <!-- Head -->
    <circle cx="160" cy="90" r="25" fill="#3b82f6"/>
    <!-- Body -->
    <rect x="150" y="120" width="20" height="65" rx="10" fill="#3b82f6"/>
    <!-- Left Arm (extended) -->
    <line x1="125" y1="130" x2="150" y2="130" stroke="#3b82f6" stroke-width="12" stroke-linecap="round"/>
    <!-- Right Arm (extended) -->
    <line x1="170" y1="130" x2="220" y2="120" stroke="#3b82f6" stroke-width="12" stroke-linecap="round"/>
    <!-- Legs -->
    <rect x="145" y="190" width="10" height="55" rx="5" fill="#3b82f6"/>
    <rect x="160" y="190" width="10" height="55" rx="5" fill="#3b82f6"/>
  </g>
  
  <!-- Person 3 (Center) -->
  <g id="person3">
    <!-- Head -->
    <circle cx="200" cy="80" r="25" fill="#1e40af"/>
    <!-- Body -->
    <rect x="190" y="110" width="20" height="75" rx="10" fill="#1e40af"/>
    <!-- Left Arm (extended) -->
    <line x1="165" y1="120" x2="190" y2="115" stroke="#1e40af" stroke-width="12" stroke-linecap="round"/>
    <!-- Right Arm (extended) -->
    <line x1="210" y1="115" x2="235" y2="120" stroke="#1e40af" stroke-width="12" stroke-linecap="round"/>
    <!-- Legs -->
    <rect x="185" y="190" width="10" height="55" rx="5" fill="#1e40af"/>
    <rect x="200" y="190" width="10" height="55" rx="5" fill="#1e40af"/>
  </g>
  
  <!-- Person 4 (Center-Right) -->
  <g id="person4">
    <!-- Head -->
    <circle cx="240" cy="90" r="25" fill="#3b82f6"/>
    <!-- Body -->
    <rect x="230" y="120" width="20" height="65" rx="10" fill="#3b82f6"/>
    <!-- Left Arm (extended) -->
    <line x1="180" y1="120" x2="230" y2="130" stroke="#3b82f6" stroke-width="12" stroke-linecap="round"/>
    <!-- Right Arm (extended) -->
    <line x1="250" y1="130" x2="275" y2="130" stroke="#3b82f6" stroke-width="12" stroke-linecap="round"/>
    <!-- Legs -->
    <rect x="225" y="190" width="10" height="55" rx="5" fill="#3b82f6"/>
    <rect x="240" y="190" width="10" height="55" rx="5" fill="#3b82f6"/>
  </g>
  
  <!-- Person 5 (Right) -->
  <g id="person5">
    <!-- Head -->
    <circle cx="320" cy="100" r="25" fill="#2563eb"/>
    <!-- Body -->
    <rect x="310" y="130" width="20" height="60" rx="10" fill="#2563eb"/>
    <!-- Left Arm (extended) -->
    <line x1="260" y1="140" x2="310" y2="140" stroke="#2563eb" stroke-width="12" stroke-linecap="round"/>
    <!-- Right Arm -->
    <rect x="330" y="140" width="25" height="15" rx="7" fill="#2563eb"/>
    <!-- Legs -->
    <rect x="305" y="195" width="10" height="50" rx="5" fill="#2563eb"/>
    <rect x="320" y="195" width="10" height="50" rx="5" fill="#2563eb"/>
  </g>
  
  <!-- Heart accent above -->
  <g id="hearts">
    <path d="M 120 50 Q 115 45 110 45 Q 100 45 100 55 Q 100 65 120 80 Q 140 65 140 55 Q 140 45 130 45 Q 125 45 120 50" fill="#ec4899" opacity="0.7"/>
    <path d="M 200 35 Q 195 30 190 30 Q 180 30 180 40 Q 180 50 200 65 Q 220 50 220 40 Q 220 30 210 30 Q 205 30 200 35" fill="#ec4899" opacity="0.8"/>
    <path d="M 280 50 Q 275 45 270 45 Q 260 45 260 55 Q 260 65 280 80 Q 300 65 300 55 Q 300 45 290 45 Q 285 45 280 50" fill="#ec4899" opacity="0.7"/>
  </g>
  
  <!-- Bottom text arc (optional) -->
  <defs>
    <path id="textPath" d="M 80,200 A 120,120 0 0,1 320,200" fill="none"/>
  </defs>
  <text font-size="28" font-weight="bold" fill="#1e40af" letter-spacing="2">
    <textPath href="#textPath" startOffset="50%" text-anchor="middle">
      IHANGO TEAMWORK
    </textPath>
  </text>
</svg>